# This file uses centimeters as units for non-parametric coordinates.

mtllib billboard.mtl
v -5.017843 -0.000000 5.017843
v -3.902767 -0.000000 5.017843
v -2.787691 -0.000000 5.017843
v -1.672614 -0.000000 5.017843
v -0.557538 -0.000000 5.017843
v 0.557538 -0.000000 5.017843
v 1.672614 -0.000000 5.017843
v 2.787691 -0.000000 5.017843
v 3.902767 -0.000000 5.017843
v 5.017843 -0.000000 5.017843
v -5.017843 -0.000000 4.014274
v -3.902767 -0.000000 4.014274
v -2.787691 -0.000000 4.014274
v -1.672614 -0.000000 4.014274
v -0.557538 -0.000000 4.014274
v 0.557538 -0.000000 4.014274
v 1.672614 -0.000000 4.014274
v 2.787691 -0.000000 4.014274
v 3.902767 -0.000000 4.014274
v 5.017843 -0.000000 4.014274
v -5.017843 -0.000000 3.010706
v -3.902767 -0.000000 3.010706
v -2.787691 -0.000000 3.010706
v -1.672614 -0.000000 3.010706
v -0.557538 -0.000000 3.010706
v 0.557538 -0.000000 3.010706
v 1.672614 -0.000000 3.010706
v 2.787691 -0.000000 3.010706
v 3.902767 -0.000000 3.010706
v 5.017843 -0.000000 3.010706
v -5.017843 -0.000000 2.007137
v -3.902767 -0.000000 2.007137
v -2.787691 -0.000000 2.007137
v -1.672614 -0.000000 2.007137
v -0.557538 -0.000000 2.007137
v 0.557538 -0.000000 2.007137
v 1.672614 -0.000000 2.007137
v 2.787691 -0.000000 2.007137
v 3.902767 -0.000000 2.007137
v 5.017843 -0.000000 2.007137
v -5.017843 -0.000000 1.003568
v -3.902767 -0.000000 1.003568
v -2.787691 -0.000000 1.003568
v -1.672614 -0.000000 1.003568
v -0.557538 -0.000000 1.003568
v 0.557538 -0.000000 1.003568
v 1.672614 -0.000000 1.003568
v 2.787691 -0.000000 1.003568
v 3.902767 -0.000000 1.003568
v 5.017843 -0.000000 1.003568
v -5.017843 0.000000 0.000000
v -3.902767 0.000000 0.000000
v -2.787691 0.000000 0.000000
v -1.672614 0.000000 0.000000
v -0.557538 0.000000 0.000000
v 0.557538 0.000000 0.000000
v 1.672614 0.000000 0.000000
v 2.787691 0.000000 0.000000
v 3.902767 0.000000 0.000000
v 5.017843 0.000000 0.000000
v -5.017843 0.000000 -1.003569
v -3.902767 0.000000 -1.003569
v -2.787691 0.000000 -1.003569
v -1.672614 0.000000 -1.003569
v -0.557538 0.000000 -1.003569
v 0.557538 0.000000 -1.003569
v 1.672614 0.000000 -1.003569
v 2.787691 0.000000 -1.003569
v 3.902767 0.000000 -1.003569
v 5.017843 0.000000 -1.003569
v -5.017843 0.000000 -2.007137
v -3.902767 0.000000 -2.007137
v -2.787691 0.000000 -2.007137
v -1.672614 0.000000 -2.007137
v -0.557538 0.000000 -2.007137
v 0.557538 0.000000 -2.007137
v 1.672614 0.000000 -2.007137
v 2.787691 0.000000 -2.007137
v 3.902767 0.000000 -2.007137
v 5.017843 0.000000 -2.007137
v -5.017843 0.000000 -3.010706
v -3.902767 0.000000 -3.010706
v -2.787691 0.000000 -3.010706
v -1.672614 0.000000 -3.010706
v -0.557538 0.000000 -3.010706
v 0.557538 0.000000 -3.010706
v 1.672614 0.000000 -3.010706
v 2.787691 0.000000 -3.010706
v 3.902767 0.000000 -3.010706
v 5.017843 0.000000 -3.010706
v -5.017843 0.000000 -4.014275
v -3.902767 0.000000 -4.014275
v -2.787691 0.000000 -4.014275
v -1.672614 0.000000 -4.014275
v -0.557538 0.000000 -4.014275
v 0.557538 0.000000 -4.014275
v 1.672614 0.000000 -4.014275
v 2.787691 0.000000 -4.014275
v 3.902767 0.000000 -4.014275
v 5.017843 0.000000 -4.014275
v -5.017843 0.000000 -5.017843
v -3.902767 0.000000 -5.017843
v -2.787691 0.000000 -5.017843
v -1.672614 0.000000 -5.017843
v -0.557538 0.000000 -5.017843
v 0.557538 0.000000 -5.017843
v 1.672614 0.000000 -5.017843
v 2.787691 0.000000 -5.017843
v 3.902767 0.000000 -5.017843
v 5.017843 0.000000 -5.017843
vt 0.001839 0.001992
vt 0.103984 0.001992
vt 0.001839 0.101594
vt 0.103984 0.101594
vt 0.206129 0.001992
vt 0.001839 0.201195
vt 0.206129 0.101594
vt 0.103984 0.201195
vt 0.308275 0.001992
vt 0.001839 0.300797
vt 0.308275 0.101594
vt 0.206129 0.201195
vt 0.103984 0.300797
vt 0.410420 0.001992
vt 0.001839 0.400399
vt 0.410420 0.101594
vt 0.308275 0.201195
vt 0.206129 0.300797
vt 0.103984 0.400399
vt 0.512566 0.001992
vt 0.001839 0.500000
vt 0.512566 0.101594
vt 0.410420 0.201195
vt 0.308275 0.300797
vt 0.206129 0.400399
vt 0.103984 0.500000
vt 0.614711 0.001992
vt 0.001839 0.599602
vt 0.614711 0.101594
vt 0.512566 0.201195
vt 0.410420 0.300797
vt 0.308275 0.400399
vt 0.206129 0.500000
vt 0.103984 0.599602
vt 0.716856 0.001992
vt 0.001839 0.699203
vt 0.716856 0.101594
vt 0.614711 0.201195
vt 0.512566 0.300797
vt 0.410420 0.400399
vt 0.308275 0.500000
vt 0.206129 0.599602
vt 0.103984 0.699203
vt 0.819002 0.001992
vt 0.001839 0.798805
vt 0.819002 0.101594
vt 0.716856 0.201195
vt 0.614711 0.300797
vt 0.512566 0.400399
vt 0.410420 0.500000
vt 0.308275 0.599602
vt 0.206129 0.699203
vt 0.103984 0.798805
vt 0.921147 0.001992
vt 0.001839 0.898407
vt 0.921147 0.101594
vt 0.819002 0.201195
vt 0.716856 0.300797
vt 0.614711 0.400399
vt 0.512566 0.500000
vt 0.410420 0.599602
vt 0.308275 0.699203
vt 0.206129 0.798805
vt 0.103984 0.898407
vt 0.001839 0.998008
vt 0.921147 0.201195
vt 0.819002 0.300797
vt 0.716856 0.400399
vt 0.614711 0.500000
vt 0.512566 0.599602
vt 0.410420 0.699203
vt 0.308275 0.798805
vt 0.206129 0.898407
vt 0.103984 0.998008
vt 0.921147 0.300797
vt 0.819002 0.400399
vt 0.716856 0.500000
vt 0.614711 0.599602
vt 0.512566 0.699203
vt 0.410420 0.798805
vt 0.308275 0.898407
vt 0.206129 0.998008
vt 0.921147 0.400399
vt 0.819002 0.500000
vt 0.716856 0.599602
vt 0.614711 0.699203
vt 0.512566 0.798805
vt 0.410420 0.898407
vt 0.308275 0.998008
vt 0.921147 0.500000
vt 0.819002 0.599602
vt 0.716856 0.699203
vt 0.614711 0.798805
vt 0.512566 0.898407
vt 0.410420 0.998008
vt 0.921147 0.599602
vt 0.819002 0.699203
vt 0.716856 0.798805
vt 0.614711 0.898407
vt 0.512566 0.998008
vt 0.921147 0.699203
vt 0.819002 0.798805
vt 0.716856 0.898407
vt 0.614711 0.998008
vt 0.921147 0.798805
vt 0.819002 0.898407
vt 0.716856 0.998008
vt 0.921147 0.898407
vt 0.819002 0.998008
vt 0.921147 0.998008
vn 0.000000 1.000000 0.000000
vn 0.000000 1.000000 0.000000
vn 0.000000 1.000000 0.000000
vn 0.000000 1.000000 0.000000
vn 0.000000 1.000000 0.000000
vn 0.000000 1.000000 0.000000
vn 0.000000 1.000000 0.000000
vn 0.000000 1.000000 0.000000
vn 0.000000 1.000000 0.000000
vn 0.000000 1.000000 0.000000
vn 0.000000 1.000000 0.000000
vn 0.000000 1.000000 0.000000
vn 0.000000 1.000000 0.000000
vn 0.000000 1.000000 0.000000
vn 0.000000 1.000000 0.000000
vn 0.000000 1.000000 0.000000
vn 0.000000 1.000000 0.000000
vn 0.000000 1.000000 0.000000
vn 0.000000 1.000000 0.000000
vn 0.000000 1.000000 0.000000
vn 0.000000 1.000000 0.000000
vn 0.000000 1.000000 0.000000
vn 0.000000 1.000000 0.000000
vn 0.000000 1.000000 0.000000
vn 0.000000 1.000000 0.000000
vn 0.000000 1.000000 0.000000
vn 0.000000 1.000000 0.000000
vn 0.000000 1.000000 0.000000
vn 0.000000 1.000000 0.000000
vn 0.000000 1.000000 0.000000
vn 0.000000 1.000000 0.000000
vn 0.000000 1.000000 0.000000
vn 0.000000 1.000000 0.000000
vn 0.000000 1.000000 0.000000
vn 0.000000 1.000000 0.000000
vn 0.000000 1.000000 0.000000
vn 0.000000 1.000000 0.000000
vn 0.000000 1.000000 0.000000
vn 0.000000 1.000000 0.000000
vn 0.000000 1.000000 0.000000
vn 0.000000 1.000000 0.000000
vn 0.000000 1.000000 0.000000
vn 0.000000 1.000000 0.000000
vn 0.000000 1.000000 0.000000
vn 0.000000 1.000000 0.000000
vn 0.000000 1.000000 0.000000
vn 0.000000 1.000000 0.000000
vn 0.000000 1.000000 0.000000
vn 0.000000 1.000000 0.000000
vn 0.000000 1.000000 0.000000
vn 0.000000 1.000000 0.000000
vn 0.000000 1.000000 0.000000
vn 0.000000 1.000000 0.000000
vn 0.000000 1.000000 0.000000
vn 0.000000 1.000000 0.000000
vn 0.000000 1.000000 0.000000
vn 0.000000 1.000000 0.000000
vn 0.000000 1.000000 0.000000
vn 0.000000 1.000000 0.000000
vn 0.000000 1.000000 0.000000
vn 0.000000 1.000000 0.000000
vn 0.000000 1.000000 0.000000
vn 0.000000 1.000000 0.000000
vn 0.000000 1.000000 0.000000
vn 0.000000 1.000000 0.000000
vn 0.000000 1.000000 0.000000
vn 0.000000 1.000000 0.000000
vn 0.000000 1.000000 0.000000
vn 0.000000 1.000000 0.000000
vn 0.000000 1.000000 0.000000
vn 0.000000 1.000000 0.000000
vn 0.000000 1.000000 0.000000
vn 0.000000 1.000000 0.000000
vn 0.000000 1.000000 0.000000
vn 0.000000 1.000000 0.000000
vn 0.000000 1.000000 0.000000
vn 0.000000 1.000000 0.000000
vn 0.000000 1.000000 0.000000
vn 0.000000 1.000000 0.000000
vn 0.000000 1.000000 0.000000
vn 0.000000 1.000000 0.000000
vn 0.000000 1.000000 0.000000
vn 0.000000 1.000000 0.000000
vn 0.000000 1.000000 0.000000
vn 0.000000 1.000000 0.000000
vn 0.000000 1.000000 0.000000
vn 0.000000 1.000000 0.000000
vn 0.000000 1.000000 0.000000
vn 0.000000 1.000000 0.000000
vn 0.000000 1.000000 0.000000
vn 0.000000 1.000000 0.000000
vn 0.000000 1.000000 0.000000
vn 0.000000 1.000000 0.000000
vn 0.000000 1.000000 0.000000
vn 0.000000 1.000000 0.000000
vn 0.000000 1.000000 0.000000
vn 0.000000 1.000000 0.000000
vn 0.000000 1.000000 0.000000
vn 0.000000 1.000000 0.000000
vn 0.000000 1.000000 0.000000
vn 0.000000 1.000000 0.000000
vn 0.000000 1.000000 0.000000
vn 0.000000 1.000000 0.000000
vn 0.000000 1.000000 0.000000
vn 0.000000 1.000000 0.000000
vn 0.000000 1.000000 0.000000
vn 0.000000 1.000000 0.000000
vn 0.000000 1.000000 0.000000
vn 0.000000 1.000000 0.000000
vn 0.000000 1.000000 0.000000
usemtl initialShadingGroup
f 1/1/1 2/2/2 11/3/3
f 11/3/3 2/2/2 12/4/4
f 2/2/2 3/5/5 12/4/4
f 12/4/4 3/5/5 13/7/6
f 3/5/5 4/9/7 13/7/6
f 13/7/6 4/9/7 14/11/8
f 4/9/7 5/14/9 14/11/8
f 14/11/8 5/14/9 15/16/10
f 5/14/9 6/20/11 15/16/10
f 15/16/10 6/20/11 16/22/12
f 6/20/11 7/27/13 16/22/12
f 16/22/12 7/27/13 17/29/14
f 7/27/13 8/35/15 17/29/14
f 17/29/14 8/35/15 18/37/16
f 8/35/15 9/44/17 18/37/16
f 18/37/16 9/44/17 19/46/18
f 9/44/17 10/54/19 19/46/18
f 19/46/18 10/54/19 20/56/20
f 11/3/3 12/4/4 21/6/21
f 21/6/21 12/4/4 22/8/22
f 12/4/4 13/7/6 22/8/22
f 22/8/22 13/7/6 23/12/23
f 13/7/6 14/11/8 23/12/23
f 23/12/23 14/11/8 24/17/24
f 14/11/8 15/16/10 24/17/24
f 24/17/24 15/16/10 25/23/25
f 15/16/10 16/22/12 25/23/25
f 25/23/25 16/22/12 26/30/26
f 16/22/12 17/29/14 26/30/26
f 26/30/26 17/29/14 27/38/27
f 17/29/14 18/37/16 27/38/27
f 27/38/27 18/37/16 28/47/28
f 18/37/16 19/46/18 28/47/28
f 28/47/28 19/46/18 29/57/29
f 19/46/18 20/56/20 29/57/29
f 29/57/29 20/56/20 30/66/30
f 21/6/21 22/8/22 31/10/31
f 31/10/31 22/8/22 32/13/32
f 22/8/22 23/12/23 32/13/32
f 32/13/32 23/12/23 33/18/33
f 23/12/23 24/17/24 33/18/33
f 33/18/33 24/17/24 34/24/34
f 24/17/24 25/23/25 34/24/34
f 34/24/34 25/23/25 35/31/35
f 25/23/25 26/30/26 35/31/35
f 35/31/35 26/30/26 36/39/36
f 26/30/26 27/38/27 36/39/36
f 36/39/36 27/38/27 37/48/37
f 27/38/27 28/47/28 37/48/37
f 37/48/37 28/47/28 38/58/38
f 28/47/28 29/57/29 38/58/38
f 38/58/38 29/57/29 39/67/39
f 29/57/29 30/66/30 39/67/39
f 39/67/39 30/66/30 40/75/40
f 31/10/31 32/13/32 41/15/41
f 41/15/41 32/13/32 42/19/42
f 32/13/32 33/18/33 42/19/42
f 42/19/42 33/18/33 43/25/43
f 33/18/33 34/24/34 43/25/43
f 43/25/43 34/24/34 44/32/44
f 34/24/34 35/31/35 44/32/44
f 44/32/44 35/31/35 45/40/45
f 35/31/35 36/39/36 45/40/45
f 45/40/45 36/39/36 46/49/46
f 36/39/36 37/48/37 46/49/46
f 46/49/46 37/48/37 47/59/47
f 37/48/37 38/58/38 47/59/47
f 47/59/47 38/58/38 48/68/48
f 38/58/38 39/67/39 48/68/48
f 48/68/48 39/67/39 49/76/49
f 39/67/39 40/75/40 49/76/49
f 49/76/49 40/75/40 50/83/50
f 41/15/41 42/19/42 51/21/51
f 51/21/51 42/19/42 52/26/52
f 42/19/42 43/25/43 52/26/52
f 52/26/52 43/25/43 53/33/53
f 43/25/43 44/32/44 53/33/53
f 53/33/53 44/32/44 54/41/54
f 44/32/44 45/40/45 54/41/54
f 54/41/54 45/40/45 55/50/55
f 45/40/45 46/49/46 55/50/55
f 55/50/55 46/49/46 56/60/56
f 46/49/46 47/59/47 56/60/56
f 56/60/56 47/59/47 57/69/57
f 47/59/47 48/68/48 57/69/57
f 57/69/57 48/68/48 58/77/58
f 48/68/48 49/76/49 58/77/58
f 58/77/58 49/76/49 59/84/59
f 49/76/49 50/83/50 59/84/59
f 59/84/59 50/83/50 60/90/60
f 51/21/51 52/26/52 61/28/61
f 61/28/61 52/26/52 62/34/62
f 52/26/52 53/33/53 62/34/62
f 62/34/62 53/33/53 63/42/63
f 53/33/53 54/41/54 63/42/63
f 63/42/63 54/41/54 64/51/64
f 54/41/54 55/50/55 64/51/64
f 64/51/64 55/50/55 65/61/65
f 55/50/55 56/60/56 65/61/65
f 65/61/65 56/60/56 66/70/66
f 56/60/56 57/69/57 66/70/66
f 66/70/66 57/69/57 67/78/67
f 57/69/57 58/77/58 67/78/67
f 67/78/67 58/77/58 68/85/68
f 58/77/58 59/84/59 68/85/68
f 68/85/68 59/84/59 69/91/69
f 59/84/59 60/90/60 69/91/69
f 69/91/69 60/90/60 70/96/70
f 61/28/61 62/34/62 71/36/71
f 71/36/71 62/34/62 72/43/72
f 62/34/62 63/42/63 72/43/72
f 72/43/72 63/42/63 73/52/73
f 63/42/63 64/51/64 73/52/73
f 73/52/73 64/51/64 74/62/74
f 64/51/64 65/61/65 74/62/74
f 74/62/74 65/61/65 75/71/75
f 65/61/65 66/70/66 75/71/75
f 75/71/75 66/70/66 76/79/76
f 66/70/66 67/78/67 76/79/76
f 76/79/76 67/78/67 77/86/77
f 67/78/67 68/85/68 77/86/77
f 77/86/77 68/85/68 78/92/78
f 68/85/68 69/91/69 78/92/78
f 78/92/78 69/91/69 79/97/79
f 69/91/69 70/96/70 79/97/79
f 79/97/79 70/96/70 80/101/80
f 71/36/71 72/43/72 81/45/81
f 81/45/81 72/43/72 82/53/82
f 72/43/72 73/52/73 82/53/82
f 82/53/82 73/52/73 83/63/83
f 73/52/73 74/62/74 83/63/83
f 83/63/83 74/62/74 84/72/84
f 74/62/74 75/71/75 84/72/84
f 84/72/84 75/71/75 85/80/85
f 75/71/75 76/79/76 85/80/85
f 85/80/85 76/79/76 86/87/86
f 76/79/76 77/86/77 86/87/86
f 86/87/86 77/86/77 87/93/87
f 77/86/77 78/92/78 87/93/87
f 87/93/87 78/92/78 88/98/88
f 78/92/78 79/97/79 88/98/88
f 88/98/88 79/97/79 89/102/89
f 79/97/79 80/101/80 89/102/89
f 89/102/89 80/101/80 90/105/90
f 81/45/81 82/53/82 91/55/91
f 91/55/91 82/53/82 92/64/92
f 82/53/82 83/63/83 92/64/92
f 92/64/92 83/63/83 93/73/93
f 83/63/83 84/72/84 93/73/93
f 93/73/93 84/72/84 94/81/94
f 84/72/84 85/80/85 94/81/94
f 94/81/94 85/80/85 95/88/95
f 85/80/85 86/87/86 95/88/95
f 95/88/95 86/87/86 96/94/96
f 86/87/86 87/93/87 96/94/96
f 96/94/96 87/93/87 97/99/97
f 87/93/87 88/98/88 97/99/97
f 97/99/97 88/98/88 98/103/98
f 88/98/88 89/102/89 98/103/98
f 98/103/98 89/102/89 99/106/99
f 89/102/89 90/105/90 99/106/99
f 99/106/99 90/105/90 100/108/100
f 91/55/91 92/64/92 101/65/101
f 101/65/101 92/64/92 102/74/102
f 92/64/92 93/73/93 102/74/102
f 102/74/102 93/73/93 103/82/103
f 93/73/93 94/81/94 103/82/103
f 103/82/103 94/81/94 104/89/104
f 94/81/94 95/88/95 104/89/104
f 104/89/104 95/88/95 105/95/105
f 95/88/95 96/94/96 105/95/105
f 105/95/105 96/94/96 106/100/106
f 96/94/96 97/99/97 106/100/106
f 106/100/106 97/99/97 107/104/107
f 97/99/97 98/103/98 107/104/107
f 107/104/107 98/103/98 108/107/108
f 98/103/98 99/106/99 108/107/108
f 108/107/108 99/106/99 109/109/109
f 99/106/99 100/108/100 109/109/109
f 109/109/109 100/108/100 110/110/110
