# Blender v2.74 (sub 0) OBJ File: ''
# www.blender.org
mtllib floor_rotating.mtl
o pCylinder6
v 4.755286 0.250000 -1.545085
v 4.755286 0.450000 -1.545085
v 4.938445 0.450000 -0.782172
v 4.455036 0.250000 -2.269953
v 4.455036 0.450000 -2.269953
v 4.045088 0.250000 -2.938927
v 4.045088 0.450000 -2.938927
v 3.535537 0.250000 -3.535535
v 3.535537 0.450000 -3.535535
v 2.938929 0.250000 -4.045087
v 2.938929 0.450000 -4.045087
v 2.269955 0.250000 -4.455035
v 2.269955 0.450000 -4.455035
v 1.545087 0.250000 -4.755285
v 1.545087 0.450000 -4.755285
v 0.782174 0.250000 -4.938445
v 0.782174 0.450000 -4.938445
v 0.000001 0.250000 -5.000003
v 0.000001 0.450000 -5.000003
v -0.782172 0.250000 -4.938445
v -0.782172 0.450000 -4.938445
v -1.545085 0.250000 -4.755285
v -1.545085 0.450000 -4.755285
v -2.269953 0.250000 -4.455035
v -2.269953 0.450000 -4.455035
v -2.938927 0.250000 -4.045088
v -2.938927 0.450000 -4.045088
v -3.535535 0.250000 -3.535537
v -3.535535 0.450000 -3.535537
v -4.045086 0.250000 -2.938929
v -4.045086 0.450000 -2.938929
v -4.455034 0.250000 -2.269954
v -4.455034 0.450000 -2.269954
v -4.755284 0.250000 -1.545087
v -4.755284 0.450000 -1.545087
v -4.938444 0.250000 -0.782174
v -4.938444 0.450000 -0.782174
v -5.000002 0.250000 -0.000001
v -5.000002 0.450000 -0.000001
v -4.938444 0.250000 0.782172
v -4.938444 0.450000 0.782172
v -4.755284 0.250000 1.545085
v -4.755284 0.450000 1.545085
v -4.455034 0.250000 2.269953
v -4.455034 0.450000 2.269953
v -4.045087 0.250000 2.938926
v -4.045087 0.450000 2.938926
v -3.535536 0.250000 3.535534
v -3.535536 0.450000 3.535534
v -2.938928 0.250000 4.045085
v -2.938928 0.450000 4.045085
v -2.269954 0.250000 4.455033
v -2.269954 0.450000 4.455033
v -1.545086 0.250000 4.755284
v -1.545086 0.450000 4.755284
v -0.782173 0.250000 4.938443
v -0.782173 0.450000 4.938443
v -0.000001 0.250000 5.000001
v -0.000001 0.450000 5.000001
v 0.782172 0.250000 4.938443
v 0.782172 0.450000 4.938443
v 1.545085 0.250000 4.755284
v 1.545085 0.450000 4.755284
v 2.269953 0.250000 4.455034
v 2.269953 0.450000 4.455034
v 2.938926 0.250000 4.045086
v 2.938926 0.450000 4.045086
v 3.535534 0.250000 3.535535
v 3.535534 0.450000 3.535535
v 4.045085 0.250000 2.938927
v 4.045085 0.450000 2.938927
v 4.455033 0.250000 2.269953
v 4.455033 0.450000 2.269953
v 4.755283 0.250000 1.545085
v 4.755283 0.450000 1.545085
v 4.938442 0.250000 0.782172
v 4.938442 0.450000 0.782172
v 5.000000 0.250000 0.000000
v 5.000000 0.450000 0.000000
v 4.938445 0.250000 -0.782172
v 0.000000 0.250000 0.000000
v 0.000000 0.450000 0.000000
vn 0.688500 -0.689900 -0.223700
vn 0.688500 0.689900 -0.223700
vn 0.715000 0.689900 -0.113200
vn 0.645000 -0.689900 -0.328700
vn 0.645000 0.689900 -0.328700
vn 0.585700 -0.689900 -0.425500
vn 0.585700 0.689900 -0.425500
vn 0.511900 -0.689900 -0.511900
vn 0.511900 0.689900 -0.511900
vn 0.425500 -0.689900 -0.585700
vn 0.425500 0.689900 -0.585700
vn 0.328700 -0.689900 -0.645000
vn 0.328700 0.689900 -0.645000
vn 0.223700 -0.689900 -0.688500
vn 0.223700 0.689900 -0.688500
vn 0.113200 -0.689900 -0.715000
vn 0.113200 0.689900 -0.715000
vn 0.000000 -0.689900 -0.723900
vn -0.000000 0.689900 -0.723900
vn -0.113200 -0.689900 -0.715000
vn -0.113200 0.689900 -0.715000
vn -0.223700 -0.689900 -0.688500
vn -0.223700 0.689900 -0.688500
vn -0.328700 -0.689900 -0.645000
vn -0.328700 0.689900 -0.645000
vn -0.425500 -0.689900 -0.585700
vn -0.425500 0.689900 -0.585700
vn -0.511900 -0.689900 -0.511900
vn -0.511900 0.689900 -0.511900
vn -0.585700 -0.689900 -0.425500
vn -0.585700 0.689900 -0.425500
vn -0.645000 -0.689900 -0.328700
vn -0.645000 0.689900 -0.328700
vn -0.688500 -0.689900 -0.223700
vn -0.688500 0.689900 -0.223700
vn -0.715000 -0.689900 -0.113200
vn -0.715000 0.689900 -0.113200
vn -0.723900 -0.689900 -0.000000
vn -0.723900 0.689900 0.000000
vn -0.715000 -0.689900 0.113200
vn -0.715000 0.689900 0.113200
vn -0.688500 -0.689900 0.223700
vn -0.688500 0.689900 0.223700
vn -0.645000 -0.689900 0.328700
vn -0.645000 0.689900 0.328700
vn -0.585700 -0.689900 0.425500
vn -0.585700 0.689900 0.425500
vn -0.511900 -0.689900 0.511900
vn -0.511900 0.689900 0.511900
vn -0.425500 -0.689900 0.585700
vn -0.425500 0.689900 0.585700
vn -0.328700 -0.689900 0.645000
vn -0.328700 0.689900 0.645000
vn -0.223700 -0.689900 0.688500
vn -0.223700 0.689900 0.688500
vn -0.113200 -0.689900 0.715000
vn -0.113200 0.689900 0.715000
vn -0.000000 -0.689900 0.723900
vn -0.000000 0.689900 0.723900
vn 0.113200 -0.689900 0.715000
vn 0.113200 0.689900 0.715000
vn 0.223700 -0.689900 0.688500
vn 0.223700 0.689900 0.688500
vn 0.328700 -0.689900 0.645000
vn 0.328700 0.689900 0.645000
vn 0.425500 -0.689900 0.585700
vn 0.425500 0.689900 0.585700
vn 0.511900 -0.689900 0.511900
vn 0.511900 0.689900 0.511900
vn 0.585700 -0.689900 0.425500
vn 0.585700 0.689900 0.425500
vn 0.645000 -0.689900 0.328700
vn 0.645000 0.689900 0.328700
vn 0.688500 -0.689900 0.223700
vn 0.688500 0.689900 0.223700
vn 0.715000 -0.689900 0.113200
vn 0.715000 0.689900 0.113200
vn 0.723900 -0.689900 0.000000
vn 0.723900 0.689900 0.000000
vn 0.715000 -0.689900 -0.113200
vn 0.000000 -1.000000 -0.000000
vn -0.000000 1.000000 0.000000
usemtl Material
s 1
f 1//1 2//2 3//3
f 4//4 5//5 2//2
f 6//6 7//7 5//5
f 8//8 9//9 7//7
f 10//10 11//11 9//9
f 12//12 13//13 11//11
f 14//14 15//15 13//13
f 16//16 17//17 15//15
f 18//18 19//19 17//17
f 20//20 21//21 19//19
f 22//22 23//23 21//21
f 24//24 25//25 23//23
f 26//26 27//27 25//25
f 28//28 29//29 27//27
f 30//30 31//31 29//29
f 32//32 33//33 31//31
f 34//34 35//35 33//33
f 36//36 37//37 35//35
f 38//38 39//39 37//37
f 40//40 41//41 39//39
f 42//42 43//43 41//41
f 44//44 45//45 43//43
f 46//46 47//47 45//45
f 48//48 49//49 47//47
f 50//50 51//51 49//49
f 52//52 53//53 51//51
f 54//54 55//55 53//53
f 56//56 57//57 55//55
f 58//58 59//59 57//57
f 60//60 61//61 59//59
f 62//62 63//63 61//61
f 64//64 65//65 63//63
f 66//66 67//67 65//65
f 68//68 69//69 67//67
f 70//70 71//71 69//69
f 72//72 73//73 71//71
f 74//74 75//75 73//73
f 76//76 77//77 75//75
f 78//78 79//79 77//77
f 80//80 3//3 79//79
f 1//1 80//80 81//81
f 4//4 1//1 81//81
f 6//6 4//4 81//81
f 8//8 6//6 81//81
f 10//10 8//8 81//81
f 12//12 10//10 81//81
f 14//14 12//12 81//81
f 16//16 14//14 81//81
f 18//18 16//16 81//81
f 20//20 18//18 81//81
f 22//22 20//20 81//81
f 24//24 22//22 81//81
f 26//26 24//24 81//81
f 28//28 26//26 81//81
f 30//30 28//28 81//81
f 32//32 30//30 81//81
f 34//34 32//32 81//81
f 36//36 34//34 81//81
f 38//38 36//36 81//81
f 40//40 38//38 81//81
f 42//42 40//40 81//81
f 44//44 42//42 81//81
f 46//46 44//44 81//81
f 48//48 46//46 81//81
f 50//50 48//48 81//81
f 52//52 50//50 81//81
f 54//54 52//52 81//81
f 56//56 54//54 81//81
f 58//58 56//56 81//81
f 60//60 58//58 81//81
f 62//62 60//60 81//81
f 64//64 62//62 81//81
f 66//66 64//64 81//81
f 68//68 66//66 81//81
f 70//70 68//68 81//81
f 72//72 70//70 81//81
f 74//74 72//72 81//81
f 76//76 74//74 81//81
f 78//78 76//76 81//81
f 80//80 78//78 81//81
f 3//3 2//2 82//82
f 2//2 5//5 82//82
f 5//5 7//7 82//82
f 7//7 9//9 82//82
f 9//9 11//11 82//82
f 11//11 13//13 82//82
f 13//13 15//15 82//82
f 15//15 17//17 82//82
f 17//17 19//19 82//82
f 19//19 21//21 82//82
f 21//21 23//23 82//82
f 23//23 25//25 82//82
f 25//25 27//27 82//82
f 27//27 29//29 82//82
f 29//29 31//31 82//82
f 31//31 33//33 82//82
f 33//33 35//35 82//82
f 35//35 37//37 82//82
f 37//37 39//39 82//82
f 39//39 41//41 82//82
f 41//41 43//43 82//82
f 43//43 45//45 82//82
f 45//45 47//47 82//82
f 47//47 49//49 82//82
f 49//49 51//51 82//82
f 51//51 53//53 82//82
f 53//53 55//55 82//82
f 55//55 57//57 82//82
f 57//57 59//59 82//82
f 59//59 61//61 82//82
f 61//61 63//63 82//82
f 63//63 65//65 82//82
f 65//65 67//67 82//82
f 67//67 69//69 82//82
f 69//69 71//71 82//82
f 71//71 73//73 82//82
f 73//73 75//75 82//82
f 75//75 77//77 82//82
f 77//77 79//79 82//82
f 79//79 3//3 82//82
f 80//80 1//1 3//3
f 1//1 4//4 2//2
f 4//4 6//6 5//5
f 6//6 8//8 7//7
f 8//8 10//10 9//9
f 10//10 12//12 11//11
f 12//12 14//14 13//13
f 14//14 16//16 15//15
f 16//16 18//18 17//17
f 18//18 20//20 19//19
f 20//20 22//22 21//21
f 22//22 24//24 23//23
f 24//24 26//26 25//25
f 26//26 28//28 27//27
f 28//28 30//30 29//29
f 30//30 32//32 31//31
f 32//32 34//34 33//33
f 34//34 36//36 35//35
f 36//36 38//38 37//37
f 38//38 40//40 39//39
f 40//40 42//42 41//41
f 42//42 44//44 43//43
f 44//44 46//46 45//45
f 46//46 48//48 47//47
f 48//48 50//50 49//49
f 50//50 52//52 51//51
f 52//52 54//54 53//53
f 54//54 56//56 55//55
f 56//56 58//58 57//57
f 58//58 60//60 59//59
f 60//60 62//62 61//61
f 62//62 64//64 63//63
f 64//64 66//66 65//65
f 66//66 68//68 67//67
f 68//68 70//70 69//69
f 70//70 72//72 71//71
f 72//72 74//74 73//73
f 74//74 76//76 75//75
f 76//76 78//78 77//77
f 78//78 80//80 79//79
