# This file uses centimeters as units for non-parametric coordinates.

mtllib floor_rotating.mtl
g default
v 4.938445 0.250000 -0.782172
v 4.755286 0.250000 -1.545085
v 4.455036 0.250000 -2.269953
v 4.045088 0.250000 -2.938927
v 3.535537 0.250000 -3.535535
v 2.938929 0.250000 -4.045087
v 2.269955 0.250000 -4.455035
v 1.545087 0.250000 -4.755285
v 0.782174 0.250000 -4.938445
v 0.000001 0.250000 -5.000003
v -0.782172 0.250000 -4.938445
v -1.545085 0.250000 -4.755285
v -2.269953 0.250000 -4.455035
v -2.938927 0.250000 -4.045088
v -3.535535 0.250000 -3.535537
v -4.045086 0.250000 -2.938929
v -4.455034 0.250000 -2.269954
v -4.755284 0.250000 -1.545087
v -4.938444 0.250000 -0.782174
v -5.000002 0.250000 -0.000001
v -4.938444 0.250000 0.782172
v -4.755284 0.250000 1.545085
v -4.455034 0.250000 2.269953
v -4.045087 0.250000 2.938926
v -3.535536 0.250000 3.535534
v -2.938928 0.250000 4.045085
v -2.269954 0.250000 4.455033
v -1.545086 0.250000 4.755284
v -0.782173 0.250000 4.938443
v -0.000001 0.250000 5.000001
v 0.782172 0.250000 4.938443
v 1.545085 0.250000 4.755284
v 2.269953 0.250000 4.455034
v 2.938926 0.250000 4.045086
v 3.535534 0.250000 3.535535
v 4.045085 0.250000 2.938927
v 4.455033 0.250000 2.269953
v 4.755283 0.250000 1.545085
v 4.938442 0.250000 0.782172
v 5.000000 0.250000 0.000000
v 4.938445 0.450000 -0.782172
v 4.755286 0.450000 -1.545085
v 4.455036 0.450000 -2.269953
v 4.045088 0.450000 -2.938927
v 3.535537 0.450000 -3.535535
v 2.938929 0.450000 -4.045087
v 2.269955 0.450000 -4.455035
v 1.545087 0.450000 -4.755285
v 0.782174 0.450000 -4.938445
v 0.000001 0.450000 -5.000003
v -0.782172 0.450000 -4.938445
v -1.545085 0.450000 -4.755285
v -2.269953 0.450000 -4.455035
v -2.938927 0.450000 -4.045088
v -3.535535 0.450000 -3.535537
v -4.045086 0.450000 -2.938929
v -4.455034 0.450000 -2.269954
v -4.755284 0.450000 -1.545087
v -4.938444 0.450000 -0.782174
v -5.000002 0.450000 -0.000001
v -4.938444 0.450000 0.782172
v -4.755284 0.450000 1.545085
v -4.455034 0.450000 2.269953
v -4.045087 0.450000 2.938926
v -3.535536 0.450000 3.535534
v -2.938928 0.450000 4.045085
v -2.269954 0.450000 4.455033
v -1.545086 0.450000 4.755284
v -0.782173 0.450000 4.938443
v -0.000001 0.450000 5.000001
v 0.782172 0.450000 4.938443
v 1.545085 0.450000 4.755284
v 2.269953 0.450000 4.455034
v 2.938926 0.450000 4.045086
v 3.535534 0.450000 3.535535
v 4.045085 0.450000 2.938927
v 4.455033 0.450000 2.269953
v 4.755283 0.450000 1.545085
v 4.938442 0.450000 0.782172
v 5.000000 0.450000 0.000000
v 0.000000 0.250000 0.000000
v 0.000000 0.450000 0.000000




































































































































































vn 0.987689 0.000000 -0.156432
vn 0.951057 0.000000 -0.309017
vn 0.951057 0.000000 -0.309017
vn 0.987689 0.000000 -0.156432
vn 0.891007 0.000000 -0.453990
vn 0.891007 0.000000 -0.453990
vn 0.809017 0.000000 -0.587785
vn 0.809017 0.000000 -0.587785
vn 0.707107 0.000000 -0.707107
vn 0.707107 0.000000 -0.707107
vn 0.587785 0.000000 -0.809017
vn 0.587785 0.000000 -0.809017
vn 0.453991 0.000000 -0.891006
vn 0.453991 0.000000 -0.891006
vn 0.309017 0.000000 -0.951056
vn 0.309017 0.000000 -0.951056
vn 0.156434 0.000000 -0.987688
vn 0.156434 0.000000 -0.987688
vn 0.000000 0.000000 -1.000000
vn 0.000000 0.000000 -1.000000
vn -0.156434 0.000000 -0.987688
vn -0.156434 0.000000 -0.987688
vn -0.309017 0.000000 -0.951057
vn -0.309017 0.000000 -0.951057
vn -0.453990 0.000000 -0.891007
vn -0.453990 0.000000 -0.891007
vn -0.587785 0.000000 -0.809017
vn -0.587785 0.000000 -0.809017
vn -0.707107 0.000000 -0.707107
vn -0.707107 0.000000 -0.707107
vn -0.809017 0.000000 -0.587785
vn -0.809017 0.000000 -0.587785
vn -0.891007 0.000000 -0.453990
vn -0.891007 0.000000 -0.453990
vn -0.951057 0.000000 -0.309017
vn -0.951057 0.000000 -0.309017
vn -0.987688 0.000000 -0.156435
vn -0.987688 0.000000 -0.156435
vn -1.000000 0.000000 0.000000
vn -1.000000 0.000000 0.000000
vn -0.987688 0.000000 0.156435
vn -0.987688 0.000000 0.156435
vn -0.951057 0.000000 0.309017
vn -0.951057 0.000000 0.309017
vn -0.891007 0.000000 0.453990
vn -0.891007 0.000000 0.453990
vn -0.809017 0.000000 0.587785
vn -0.809017 0.000000 0.587785
vn -0.707107 0.000000 0.707107
vn -0.707107 0.000000 0.707107
vn -0.587785 0.000000 0.809017
vn -0.587785 0.000000 0.809017
vn -0.453991 0.000000 0.891006
vn -0.453991 0.000000 0.891006
vn -0.309017 0.000000 0.951056
vn -0.309017 0.000000 0.951056
vn -0.156434 0.000000 0.987688
vn -0.156434 0.000000 0.987688
vn 0.000000 0.000000 1.000000
vn 0.000000 0.000000 1.000000
vn 0.156434 0.000000 0.987688
vn 0.156434 0.000000 0.987688
vn 0.309017 0.000000 0.951057
vn 0.309017 0.000000 0.951057
vn 0.453990 0.000000 0.891007
vn 0.453990 0.000000 0.891007
vn 0.587785 0.000000 0.809017
vn 0.587785 0.000000 0.809017
vn 0.707107 0.000000 0.707107
vn 0.707107 0.000000 0.707107
vn 0.809017 0.000000 0.587785
vn 0.809017 0.000000 0.587785
vn 0.891007 0.000000 0.453990
vn 0.891007 0.000000 0.453990
vn 0.951057 0.000000 0.309017
vn 0.951057 0.000000 0.309017
vn 0.987688 0.000000 0.156434
vn 0.987688 0.000000 0.156434
vn 1.000000 0.000000 0.000002
vn 1.000000 0.000000 0.000002
vn 0.000000 -1.000000 0.000000
vn 0.000000 -1.000000 0.000000
vn 0.000000 -1.000000 0.000000
vn 0.000000 -1.000000 0.000000
vn 0.000000 -1.000000 0.000000
vn 0.000000 -1.000000 0.000000
vn 0.000000 -1.000000 -0.000000
vn 0.000000 -1.000000 -0.000000
vn 0.000000 -1.000000 0.000000
vn 0.000000 -1.000000 0.000000
vn 0.000000 -1.000000 0.000000
vn 0.000000 -1.000000 0.000000
vn 0.000000 -1.000000 0.000000
vn 0.000000 -1.000000 0.000000
vn 0.000000 -1.000000 0.000000
vn 0.000000 -1.000000 0.000000
vn 0.000000 -1.000000 0.000000
vn 0.000000 -1.000000 0.000000
vn 0.000000 -1.000000 0.000000
vn 0.000000 -1.000000 0.000000
vn 0.000000 -1.000000 0.000000
vn 0.000000 -1.000000 -0.000000
vn 0.000000 -1.000000 -0.000000
vn 0.000000 -1.000000 0.000000
vn 0.000000 -1.000000 0.000000
vn 0.000000 -1.000000 0.000000
vn 0.000000 -1.000000 0.000000
vn 0.000000 -1.000000 0.000000
vn 0.000000 -1.000000 0.000000
vn 0.000000 -1.000000 0.000000
vn 0.000000 -1.000000 0.000000
vn 0.000000 -1.000000 -0.000000
vn 0.000000 -1.000000 0.000000
vn 0.000000 -1.000000 0.000000
vn 0.000000 -1.000000 0.000000
vn 0.000000 -1.000000 0.000000
vn 0.000000 -1.000000 0.000000
vn 0.000000 -1.000000 0.000000
vn 0.000000 -1.000000 0.000000
vn 0.000000 -1.000000 0.000000
vn 0.000000 -1.000000 0.000000
vn 0.000000 1.000000 0.000000
vn 0.000000 1.000000 0.000000
vn 0.000000 1.000000 0.000000
vn 0.000000 1.000000 0.000000
vn 0.000000 1.000000 0.000000
vn 0.000000 1.000000 0.000000
vn 0.000000 1.000000 0.000000
vn 0.000000 1.000000 0.000000
vn 0.000000 1.000000 0.000000
vn 0.000000 1.000000 0.000000
vn 0.000000 1.000000 0.000000
vn 0.000000 1.000000 0.000000
vn 0.000000 1.000000 0.000000
vn 0.000000 1.000000 0.000000
vn 0.000000 1.000000 0.000000
vn 0.000000 1.000000 0.000000
vn 0.000000 1.000000 0.000000
vn 0.000000 1.000000 0.000000
vn 0.000000 1.000000 0.000000
vn 0.000000 1.000000 0.000000
vn 0.000000 1.000000 0.000000
vn 0.000000 1.000000 -0.000000
vn 0.000000 1.000000 -0.000000
vn 0.000000 1.000000 0.000000
vn 0.000000 1.000000 0.000000
vn 0.000000 1.000000 0.000000
vn 0.000000 1.000000 0.000000
vn 0.000000 1.000000 0.000000
vn 0.000000 1.000000 0.000000
vn 0.000000 1.000000 0.000000
vn 0.000000 1.000000 0.000000
vn 0.000000 1.000000 -0.000000
vn 0.000000 1.000000 0.000000
vn 0.000000 1.000000 0.000000
vn 0.000000 1.000000 0.000000
vn 0.000000 1.000000 0.000000
vn 0.000000 1.000000 0.000000
vn 0.000000 1.000000 0.000000
vn 0.000000 1.000000 0.000000
vn 0.000000 1.000000 0.000000
vn 0.000000 1.000000 0.000000
s 1
g pCylinder6
usemtl initialShadingGroup
f 1/41/1 2/42/2 42/83/3 41/82/4
f 2/42/2 3/43/5 43/84/6 42/83/3
f 3/43/5 4/44/7 44/85/8 43/84/6
f 4/44/7 5/45/9 45/86/10 44/85/8
f 5/45/9 6/46/11 46/87/12 45/86/10
f 6/46/11 7/47/13 47/88/14 46/87/12
f 7/47/13 8/48/15 48/89/16 47/88/14
f 8/48/15 9/49/17 49/90/18 48/89/16
f 9/49/17 10/50/19 50/91/20 49/90/18
f 10/50/19 11/51/21 51/92/22 50/91/20
f 11/51/21 12/52/23 52/93/24 51/92/22
f 12/52/23 13/53/25 53/94/26 52/93/24
f 13/53/25 14/54/27 54/95/28 53/94/26
f 14/54/27 15/55/29 55/96/30 54/95/28
f 15/55/29 16/56/31 56/97/32 55/96/30
f 16/56/31 17/57/33 57/98/34 56/97/32
f 17/57/33 18/58/35 58/99/36 57/98/34
f 18/58/35 19/59/37 59/100/38 58/99/36
f 19/59/37 20/60/39 60/101/40 59/100/38
f 20/60/39 21/61/41 61/102/42 60/101/40
f 21/61/41 22/62/43 62/103/44 61/102/42
f 22/62/43 23/63/45 63/104/46 62/103/44
f 23/63/45 24/64/47 64/105/48 63/104/46
f 24/64/47 25/65/49 65/106/50 64/105/48
f 25/65/49 26/66/51 66/107/52 65/106/50
f 26/66/51 27/67/53 67/108/54 66/107/52
f 27/67/53 28/68/55 68/109/56 67/108/54
f 28/68/55 29/69/57 69/110/58 68/109/56
f 29/69/57 30/70/59 70/111/60 69/110/58
f 30/70/59 31/71/61 71/112/62 70/111/60
f 31/71/61 32/72/63 72/113/64 71/112/62
f 32/72/63 33/73/65 73/114/66 72/113/64
f 33/73/65 34/74/67 74/115/68 73/114/66
f 34/74/67 35/75/69 75/116/70 74/115/68
f 35/75/69 36/76/71 76/117/72 75/116/70
f 36/76/71 37/77/73 77/118/74 76/117/72
f 37/77/73 38/78/75 78/119/76 77/118/74
f 38/78/75 39/79/77 79/120/78 78/119/76
f 39/79/77 40/80/79 80/121/80 79/120/78
f 40/80/79 1/81/1 41/122/4 80/121/80
s 2
f 2/2/81 1/1/82 81/163/83
f 3/3/84 2/2/81 81/163/83
f 4/4/85 3/3/84 81/163/83
f 5/5/86 4/4/85 81/163/83
f 6/6/87 5/5/86 81/163/83
f 7/7/88 6/6/87 81/163/83
f 8/8/89 7/7/88 81/163/83
f 9/9/90 8/8/89 81/163/83
f 10/10/91 9/9/90 81/163/83
f 11/11/92 10/10/91 81/163/83
f 12/12/93 11/11/92 81/163/83
f 13/13/94 12/12/93 81/163/83
f 14/14/95 13/13/94 81/163/83
f 15/15/96 14/14/95 81/163/83
f 16/16/97 15/15/96 81/163/83
f 17/17/98 16/16/97 81/163/83
f 18/18/99 17/17/98 81/163/83
f 19/19/100 18/18/99 81/163/83
f 20/20/101 19/19/100 81/163/83
f 21/21/102 20/20/101 81/163/83
f 22/22/103 21/21/102 81/163/83
f 23/23/104 22/22/103 81/163/83
f 24/24/105 23/23/104 81/163/83
f 25/25/106 24/24/105 81/163/83
f 26/26/107 25/25/106 81/163/83
f 27/27/108 26/26/107 81/163/83
f 28/28/109 27/27/108 81/163/83
f 29/29/110 28/28/109 81/163/83
f 30/30/111 29/29/110 81/163/83
f 31/31/112 30/30/111 81/163/83
f 32/32/113 31/31/112 81/163/83
f 33/33/114 32/32/113 81/163/83
f 34/34/115 33/33/114 81/163/83
f 35/35/116 34/34/115 81/163/83
f 36/36/117 35/35/116 81/163/83
f 37/37/118 36/36/117 81/163/83
f 38/38/119 37/37/118 81/163/83
f 39/39/120 38/38/119 81/163/83
f 40/40/121 39/39/120 81/163/83
f 1/1/82 40/40/121 81/163/83
s 3
f 41/161/122 42/160/123 82/164/124
f 42/160/123 43/159/125 82/164/124
f 43/159/125 44/158/126 82/164/124
f 44/158/126 45/157/127 82/164/124
f 45/157/127 46/156/128 82/164/124
f 46/156/128 47/155/129 82/164/124
f 47/155/129 48/154/130 82/164/124
f 48/154/130 49/153/131 82/164/124
f 49/153/131 50/152/132 82/164/124
f 50/152/132 51/151/133 82/164/124
f 51/151/133 52/150/134 82/164/124
f 52/150/134 53/149/135 82/164/124
f 53/149/135 54/148/136 82/164/124
f 54/148/136 55/147/137 82/164/124
f 55/147/137 56/146/138 82/164/124
f 56/146/138 57/145/139 82/164/124
f 57/145/139 58/144/140 82/164/124
f 58/144/140 59/143/141 82/164/124
f 59/143/141 60/142/142 82/164/124
f 60/142/142 61/141/143 82/164/124
f 61/141/143 62/140/144 82/164/124
f 62/140/144 63/139/145 82/164/124
f 63/139/145 64/138/146 82/164/124
f 64/138/146 65/137/147 82/164/124
f 65/137/147 66/136/148 82/164/124
f 66/136/148 67/135/149 82/164/124
f 67/135/149 68/134/150 82/164/124
f 68/134/150 69/133/151 82/164/124
f 69/133/151 70/132/152 82/164/124
f 70/132/152 71/131/153 82/164/124
f 71/131/153 72/130/154 82/164/124
f 72/130/154 73/129/155 82/164/124
f 73/129/155 74/128/156 82/164/124
f 74/128/156 75/127/157 82/164/124
f 75/127/157 76/126/158 82/164/124
f 76/126/158 77/125/159 82/164/124
f 77/125/159 78/124/160 82/164/124
f 78/124/160 79/123/161 82/164/124
f 79/123/161 80/162/162 82/164/124
f 80/162/162 41/161/122 82/164/124
