# Blender v2.74 (sub 0) OBJ File: ''
# www.blender.org
mtllib floor_static.mtl
o pCylinder5
v 6.847611 -0.250000 -2.224922
v 6.847611 0.250000 -2.224922
v 7.111361 0.250000 -1.126327
v 6.415252 -0.250000 -3.268732
v 6.415252 0.250000 -3.268732
v 5.824927 -0.250000 -4.232055
v 5.824927 0.250000 -4.232055
v 5.091173 -0.250000 -5.091171
v 5.091173 0.250000 -5.091171
v 4.232058 -0.250000 -5.824925
v 4.232058 0.250000 -5.824925
v 3.268735 -0.250000 -6.415250
v 3.268735 0.250000 -6.415250
v 2.224925 -0.250000 -6.847610
v 2.224925 0.250000 -6.847610
v 1.126330 -0.250000 -7.111360
v 1.126330 0.250000 -7.111360
v 0.000002 -0.250000 -7.200004
v 0.000002 0.250000 -7.200004
v -1.126327 -0.250000 -7.111360
v -1.126327 0.250000 -7.111360
v -2.224922 -0.250000 -6.847611
v -2.224922 0.250000 -6.847611
v -3.268732 -0.250000 -6.415251
v -3.268732 0.250000 -6.415251
v -4.232055 -0.250000 -5.824926
v -4.232055 0.250000 -5.824926
v -5.091170 -0.250000 -5.091173
v -5.091170 0.250000 -5.091173
v -5.824924 -0.250000 -4.232057
v -5.824924 0.250000 -4.232057
v -6.415249 -0.250000 -3.268734
v -6.415249 0.250000 -3.268734
v -6.847610 -0.250000 -2.224925
v -6.847610 0.250000 -2.224925
v -7.111359 -0.250000 -1.126330
v -7.111359 0.250000 -1.126330
v -7.200002 -0.250000 -0.000001
v -7.200002 0.250000 -0.000001
v -7.111359 -0.250000 1.126327
v -7.111359 0.250000 1.126327
v -6.847610 -0.250000 2.224922
v -6.847610 0.250000 2.224922
v -6.415249 -0.250000 3.268731
v -6.415249 0.250000 3.268731
v -5.824925 -0.250000 4.232054
v -5.824925 0.250000 4.232054
v -5.091171 -0.250000 5.091169
v -5.091171 0.250000 5.091169
v -4.232056 -0.250000 5.824923
v -4.232056 0.250000 5.824923
v -3.268733 -0.250000 6.415248
v -3.268733 0.250000 6.415248
v -2.224924 -0.250000 6.847609
v -2.224924 0.250000 6.847609
v -1.126329 -0.250000 7.111358
v -1.126329 0.250000 7.111358
v -0.000001 -0.250000 7.200002
v -0.000001 0.250000 7.200002
v 1.126328 -0.250000 7.111358
v 1.126328 0.250000 7.111358
v 2.224922 -0.250000 6.847609
v 2.224922 0.250000 6.847609
v 3.268732 -0.250000 6.415248
v 3.268732 0.250000 6.415248
v 4.232054 -0.250000 5.824924
v 4.232054 0.250000 5.824924
v 5.091169 -0.250000 5.091170
v 5.091169 0.250000 5.091170
v 5.824923 -0.250000 4.232055
v 5.824923 0.250000 4.232055
v 6.415247 -0.250000 3.268732
v 6.415247 0.250000 3.268732
v 6.847607 -0.250000 2.224923
v 6.847607 0.250000 2.224923
v 7.111356 -0.250000 1.126328
v 7.111356 0.250000 1.126328
v 7.200000 -0.250000 -0.000000
v 7.200000 0.250000 0.000000
v 7.111361 -0.250000 -1.126327
v 0.000000 -0.250000 -0.000000
v 0.000000 0.250000 0.000000
vt 0.381250 0.312500
vt 0.381250 0.688440
vt 0.375000 0.688440
vt 0.387500 0.312500
vt 0.387500 0.688440
vt 0.393750 0.312500
vt 0.393750 0.688440
vt 0.400000 0.312500
vt 0.400000 0.688440
vt 0.406250 0.312500
vt 0.406250 0.688440
vt 0.412500 0.312500
vt 0.412500 0.688440
vt 0.418750 0.312500
vt 0.418750 0.688440
vt 0.425000 0.312500
vt 0.425000 0.688440
vt 0.431250 0.312500
vt 0.431250 0.688440
vt 0.437500 0.312500
vt 0.437500 0.688440
vt 0.443750 0.312500
vt 0.443750 0.688440
vt 0.450000 0.312500
vt 0.450000 0.688440
vt 0.456250 0.312500
vt 0.456250 0.688440
vt 0.462500 0.312500
vt 0.462500 0.688440
vt 0.468750 0.312500
vt 0.468750 0.688440
vt 0.475000 0.312500
vt 0.475000 0.688440
vt 0.481250 0.312500
vt 0.481250 0.688440
vt 0.487500 0.312500
vt 0.487500 0.688440
vt 0.493750 0.312500
vt 0.493750 0.688440
vt 0.500000 0.312500
vt 0.500000 0.688440
vt 0.506250 0.312500
vt 0.506250 0.688440
vt 0.512500 0.312500
vt 0.512500 0.688440
vt 0.518750 0.312500
vt 0.518750 0.688440
vt 0.525000 0.312500
vt 0.525000 0.688440
vt 0.531250 0.312500
vt 0.531250 0.688440
vt 0.537500 0.312500
vt 0.537500 0.688440
vt 0.543750 0.312500
vt 0.543750 0.688440
vt 0.550000 0.312500
vt 0.550000 0.688440
vt 0.556250 0.312500
vt 0.556250 0.688440
vt 0.562500 0.312500
vt 0.562500 0.688440
vt 0.568750 0.312500
vt 0.568750 0.688440
vt 0.575000 0.312500
vt 0.575000 0.688440
vt 0.581250 0.312500
vt 0.581250 0.688440
vt 0.587500 0.312500
vt 0.587500 0.688440
vt 0.593750 0.312500
vt 0.593750 0.688440
vt 0.600000 0.312500
vt 0.600000 0.688440
vt 0.606250 0.312500
vt 0.606250 0.688440
vt 0.612500 0.312500
vt 0.612500 0.688440
vt 0.618750 0.312500
vt 0.618750 0.688440
vt 0.625000 0.312500
vt 0.625000 0.688440
vt 0.648603 0.107966
vt 0.654326 0.131807
vt 0.500000 0.150000
vt 0.639220 0.085314
vt 0.626409 0.064409
vt 0.610486 0.045765
vt 0.591842 0.029841
vt 0.570936 0.017030
vt 0.548284 0.007647
vt 0.524443 0.001924
vt 0.500000 -0.000000
vt 0.475557 0.001924
vt 0.451716 0.007647
vt 0.429064 0.017030
vt 0.408159 0.029841
vt 0.389515 0.045764
vt 0.373591 0.064408
vt 0.360780 0.085314
vt 0.351397 0.107966
vt 0.345674 0.131807
vt 0.343750 0.156250
vt 0.345674 0.180693
vt 0.351397 0.204534
vt 0.360780 0.227186
vt 0.373591 0.248091
vt 0.389515 0.266735
vt 0.408159 0.282659
vt 0.429064 0.295470
vt 0.451716 0.304853
vt 0.475557 0.310576
vt 0.524443 0.310576
vt 0.548284 0.304853
vt 0.570936 0.295470
vt 0.591841 0.282659
vt 0.610485 0.266735
vt 0.626409 0.248091
vt 0.639220 0.227186
vt 0.648603 0.204534
vt 0.654326 0.180693
vt 0.656250 0.156250
vt 0.654326 0.868193
vt 0.648603 0.892034
vt 0.500000 0.837500
vt 0.639220 0.914686
vt 0.626409 0.935591
vt 0.610485 0.954235
vt 0.591841 0.970159
vt 0.570936 0.982970
vt 0.548284 0.992353
vt 0.524443 0.998076
vt 0.500000 1.000000
vt 0.475557 0.998076
vt 0.451716 0.992353
vt 0.429064 0.982970
vt 0.408159 0.970159
vt 0.389515 0.954235
vt 0.373591 0.935591
vt 0.360780 0.914686
vt 0.351397 0.892034
vt 0.345674 0.868193
vt 0.343750 0.843750
vt 0.345674 0.819307
vt 0.351397 0.795466
vt 0.360780 0.772814
vt 0.373591 0.751908
vt 0.389515 0.733265
vt 0.408159 0.717341
vt 0.429064 0.704530
vt 0.451716 0.695147
vt 0.475557 0.689424
vt 0.500000 0.687500
vt 0.524443 0.689424
vt 0.548284 0.695147
vt 0.570936 0.704530
vt 0.591842 0.717341
vt 0.610486 0.733265
vt 0.626409 0.751909
vt 0.639220 0.772814
vt 0.648603 0.795466
vt 0.654326 0.819307
vt 0.656250 0.843750
vt 0.375000 0.312500
vn 0.951100 0.000000 -0.309000
vn 0.987700 0.000000 -0.156400
vn 0.891000 0.000000 -0.454000
vn 0.809000 0.000000 -0.587800
vn 0.707100 0.000000 -0.707100
vn 0.587800 0.000000 -0.809000
vn 0.454000 0.000000 -0.891000
vn 0.309000 0.000000 -0.951100
vn 0.156400 0.000000 -0.987700
vn -0.000000 0.000000 -1.000000
vn -0.156400 0.000000 -0.987700
vn -0.309000 0.000000 -0.951100
vn -0.454000 0.000000 -0.891000
vn -0.587800 0.000000 -0.809000
vn -0.707100 0.000000 -0.707100
vn -0.809000 0.000000 -0.587800
vn -0.891000 0.000000 -0.454000
vn -0.951100 0.000000 -0.309000
vn -0.987700 0.000000 -0.156400
vn -1.000000 0.000000 0.000000
vn -0.987700 0.000000 0.156400
vn -0.951100 0.000000 0.309000
vn -0.891000 0.000000 0.454000
vn -0.809000 0.000000 0.587800
vn -0.707100 0.000000 0.707100
vn -0.587800 0.000000 0.809000
vn -0.454000 0.000000 0.891000
vn -0.309000 0.000000 0.951100
vn -0.156400 0.000000 0.987700
vn -0.000000 0.000000 1.000000
vn 0.156400 0.000000 0.987700
vn 0.309000 0.000000 0.951100
vn 0.454000 0.000000 0.891000
vn 0.587800 0.000000 0.809000
vn 0.707100 0.000000 0.707100
vn 0.809000 0.000000 0.587800
vn 0.891000 0.000000 0.454000
vn 0.951100 0.000000 0.309000
vn 0.987700 0.000000 0.156400
vn 1.000000 0.000000 0.000000
vn -0.000000 -1.000000 -0.000000
vn -0.000000 1.000000 0.000000
usemtl Material
s 1
f 1/1/1 2/2/1 3/3/2
f 4/4/3 5/5/3 2/2/1
f 6/6/4 7/7/4 5/5/3
f 8/8/5 9/9/5 7/7/4
f 10/10/6 11/11/6 9/9/5
f 12/12/7 13/13/7 11/11/6
f 14/14/8 15/15/8 13/13/7
f 16/16/9 17/17/9 15/15/8
f 18/18/10 19/19/10 17/17/9
f 20/20/11 21/21/11 19/19/10
f 22/22/12 23/23/12 21/21/11
f 24/24/13 25/25/13 23/23/12
f 26/26/14 27/27/14 25/25/13
f 28/28/15 29/29/15 27/27/14
f 30/30/16 31/31/16 29/29/15
f 32/32/17 33/33/17 31/31/16
f 34/34/18 35/35/18 33/33/17
f 36/36/19 37/37/19 35/35/18
f 38/38/20 39/39/20 37/37/19
f 40/40/21 41/41/21 39/39/20
f 42/42/22 43/43/22 41/41/21
f 44/44/23 45/45/23 43/43/22
f 46/46/24 47/47/24 45/45/23
f 48/48/25 49/49/25 47/47/24
f 50/50/26 51/51/26 49/49/25
f 52/52/27 53/53/27 51/51/26
f 54/54/28 55/55/28 53/53/27
f 56/56/29 57/57/29 55/55/28
f 58/58/30 59/59/30 57/57/29
f 60/60/31 61/61/31 59/59/30
f 62/62/32 63/63/32 61/61/31
f 64/64/33 65/65/33 63/63/32
f 66/66/34 67/67/34 65/65/33
f 68/68/35 69/69/35 67/67/34
f 70/70/36 71/71/36 69/69/35
f 72/72/37 73/73/37 71/71/36
f 74/74/38 75/75/38 73/73/37
f 76/76/39 77/77/39 75/75/38
f 78/78/40 79/79/40 77/77/39
f 80/80/2 3/81/2 79/79/40
f 1/82/41 80/83/41 81/84/41
f 4/85/41 1/82/41 81/84/41
f 6/86/41 4/85/41 81/84/41
f 8/87/41 6/86/41 81/84/41
f 10/88/41 8/87/41 81/84/41
f 12/89/41 10/88/41 81/84/41
f 14/90/41 12/89/41 81/84/41
f 16/91/41 14/90/41 81/84/41
f 18/92/41 16/91/41 81/84/41
f 20/93/41 18/92/41 81/84/41
f 22/94/41 20/93/41 81/84/41
f 24/95/41 22/94/41 81/84/41
f 26/96/41 24/95/41 81/84/41
f 28/97/41 26/96/41 81/84/41
f 30/98/41 28/97/41 81/84/41
f 32/99/41 30/98/41 81/84/41
f 34/100/41 32/99/41 81/84/41
f 36/101/41 34/100/41 81/84/41
f 38/102/41 36/101/41 81/84/41
f 40/103/41 38/102/41 81/84/41
f 42/104/41 40/103/41 81/84/41
f 44/105/41 42/104/41 81/84/41
f 46/106/41 44/105/41 81/84/41
f 48/107/41 46/106/41 81/84/41
f 50/108/41 48/107/41 81/84/41
f 52/109/41 50/108/41 81/84/41
f 54/110/41 52/109/41 81/84/41
f 56/111/41 54/110/41 81/84/41
f 58/40/41 56/111/41 81/84/41
f 60/112/41 58/40/41 81/84/41
f 62/113/41 60/112/41 81/84/41
f 64/114/41 62/113/41 81/84/41
f 66/115/41 64/114/41 81/84/41
f 68/116/41 66/115/41 81/84/41
f 70/117/41 68/116/41 81/84/41
f 72/118/41 70/117/41 81/84/41
f 74/119/41 72/118/41 81/84/41
f 76/120/41 74/119/41 81/84/41
f 78/121/41 76/120/41 81/84/41
f 80/83/41 78/121/41 81/84/41
f 3/122/42 2/123/42 82/124/42
f 2/123/42 5/125/42 82/124/42
f 5/125/42 7/126/42 82/124/42
f 7/126/42 9/127/42 82/124/42
f 9/127/42 11/128/42 82/124/42
f 11/128/42 13/129/42 82/124/42
f 13/129/42 15/130/42 82/124/42
f 15/130/42 17/131/42 82/124/42
f 17/131/42 19/132/42 82/124/42
f 19/132/42 21/133/42 82/124/42
f 21/133/42 23/134/42 82/124/42
f 23/134/42 25/135/42 82/124/42
f 25/135/42 27/136/42 82/124/42
f 27/136/42 29/137/42 82/124/42
f 29/137/42 31/138/42 82/124/42
f 31/138/42 33/139/42 82/124/42
f 33/139/42 35/140/42 82/124/42
f 35/140/42 37/141/42 82/124/42
f 37/141/42 39/142/42 82/124/42
f 39/142/42 41/143/42 82/124/42
f 41/143/42 43/144/42 82/124/42
f 43/144/42 45/145/42 82/124/42
f 45/145/42 47/146/42 82/124/42
f 47/146/42 49/147/42 82/124/42
f 49/147/42 51/148/42 82/124/42
f 51/148/42 53/149/42 82/124/42
f 53/149/42 55/150/42 82/124/42
f 55/150/42 57/151/42 82/124/42
f 57/151/42 59/152/42 82/124/42
f 59/152/42 61/153/42 82/124/42
f 61/153/42 63/154/42 82/124/42
f 63/154/42 65/155/42 82/124/42
f 65/155/42 67/156/42 82/124/42
f 67/156/42 69/157/42 82/124/42
f 69/157/42 71/158/42 82/124/42
f 71/158/42 73/159/42 82/124/42
f 73/159/42 75/160/42 82/124/42
f 75/160/42 77/161/42 82/124/42
f 77/161/42 79/162/42 82/124/42
f 79/162/42 3/122/42 82/124/42
f 80/163/2 1/1/1 3/3/2
f 1/1/1 4/4/3 2/2/1
f 4/4/3 6/6/4 5/5/3
f 6/6/4 8/8/5 7/7/4
f 8/8/5 10/10/6 9/9/5
f 10/10/6 12/12/7 11/11/6
f 12/12/7 14/14/8 13/13/7
f 14/14/8 16/16/9 15/15/8
f 16/16/9 18/18/10 17/17/9
f 18/18/10 20/20/11 19/19/10
f 20/20/11 22/22/12 21/21/11
f 22/22/12 24/24/13 23/23/12
f 24/24/13 26/26/14 25/25/13
f 26/26/14 28/28/15 27/27/14
f 28/28/15 30/30/16 29/29/15
f 30/30/16 32/32/17 31/31/16
f 32/32/17 34/34/18 33/33/17
f 34/34/18 36/36/19 35/35/18
f 36/36/19 38/38/20 37/37/19
f 38/38/20 40/40/21 39/39/20
f 40/40/21 42/42/22 41/41/21
f 42/42/22 44/44/23 43/43/22
f 44/44/23 46/46/24 45/45/23
f 46/46/24 48/48/25 47/47/24
f 48/48/25 50/50/26 49/49/25
f 50/50/26 52/52/27 51/51/26
f 52/52/27 54/54/28 53/53/27
f 54/54/28 56/56/29 55/55/28
f 56/56/29 58/58/30 57/57/29
f 58/58/30 60/60/31 59/59/30
f 60/60/31 62/62/32 61/61/31
f 62/62/32 64/64/33 63/63/32
f 64/64/33 66/66/34 65/65/33
f 66/66/34 68/68/35 67/67/34
f 68/68/35 70/70/36 69/69/35
f 70/70/36 72/72/37 71/71/36
f 72/72/37 74/74/38 73/73/37
f 74/74/38 76/76/39 75/75/38
f 76/76/39 78/78/40 77/77/39
f 78/78/40 80/80/2 79/79/40
